<svg width="32" height="32" viewBox="0 0 32 32" fill="none" xmlns="http://www.w3.org/2000/svg">
<rect width="32" height="32" rx="4" fill="url(#paint0_linear_544_119)"/>
<path d="M9.94686 5.45142H22.7166C24.1154 5.45142 25.212 6.52703 25.212 7.80883V24.6618C25.212 25.9436 24.1154 27.0192 22.7166 27.0192H9.94686C8.54801 27.0192 7.45142 25.9436 7.45142 24.6618V7.80883C7.45142 6.52703 8.54801 5.45142 9.94686 5.45142Z" stroke="white" stroke-width="0.902836"/>
<path d="M17.8051 22.3211L17.5596 23.7255L18.5419 23.2574L19.7697 24.6618L21.4887 23.7255L20.5064 22.3211L21.4887 21.853L19.7697 21.3848L18.0507 20.9167L17.8051 22.3211Z" stroke="white" stroke-width="0.451418"/>
<path d="M16.8258 14.8958H14.3911V19.5122H12.2069V7.53085H16.6272C18.0776 7.53085 19.1971 7.84081 19.9856 8.46073C20.7741 9.08065 21.1684 9.9776 21.1684 11.1516C21.1684 11.9526 20.964 12.6246 20.5554 13.1677C20.1525 13.7053 19.5884 14.1195 18.8632 14.4103L21.6863 19.4053V19.5122H19.3467L16.8258 14.8958ZM14.3911 13.2253H16.6358C17.3725 13.2253 17.9481 13.0497 18.3625 12.6986C18.7769 12.3421 18.9841 11.8566 18.9841 11.2421C18.9841 10.6003 18.7913 10.1038 18.4057 9.75266C18.0258 9.40155 17.456 9.22053 16.6963 9.20957H14.3911V13.2253Z" fill="white"/>
<defs>
<linearGradient id="paint0_linear_544_119" x1="3" y1="4.00001" x2="25.5" y2="29" gradientUnits="userSpaceOnUse">
<stop stop-color="#345EC2"/>
<stop offset="1" stop-color="#264FB2"/>
</linearGradient>
</defs>
</svg>
