<svg width="32" height="32" fill="none" xmlns="http://www.w3.org/2000/svg"><rect width="32" height="32" rx="4" fill="url(#a)"/><path d="M7.79 4.451h16.42c1.948 0 3.339 1.234 3.339 2.549v18c0 1.315-1.39 2.549-3.338 2.549H7.788c-1.947 0-3.338-1.234-3.338-2.549V7c0-1.315 1.39-2.549 3.338-2.549Z" stroke="#fff" stroke-width=".903"/><path d="m17.895 22.5-.316 1.5 1.263-.5 1.58 1.5 2.21-1-1.264-1.5 1.264-.5-2.21-.5-2.212-.5-.315 1.5Z" stroke="#fff" stroke-width=".451"/><path d="M16.635 14.57h-3.13v4.93h-2.81V6.703h5.685c1.865 0 3.305.331 4.319.993 1.014.662 1.52 1.62 1.52 2.874 0 .856-.262 1.573-.788 2.154-.518.574-1.243 1.016-2.176 1.327l3.63 5.335v.114h-3.008l-3.242-4.93Zm-3.13-1.785h2.886c.947 0 1.688-.187 2.22-.562.533-.381.8-.9.8-1.556 0-.686-.248-1.216-.744-1.59-.489-.376-1.221-.57-2.198-.58h-2.965v4.288Z" fill="#fff"/><defs><linearGradient id="a" x1="3" y1="4" x2="25.5" y2="29" gradientUnits="userSpaceOnUse"><stop stop-color="#345EC2"/><stop offset="1" stop-color="#264FB2"/></linearGradient></defs></svg>