<svg width="24" height="24" fill="none" xmlns="http://www.w3.org/2000/svg"><path d="M20 5h-3.17l-1.24-1.35A1.99 1.99 0 0 0 14.12 3H9.88c-.56 0-1.1.24-1.48.65L7.17 5H4c-1.1 0-2 .9-2 2v12c0 1.1.9 2 2 2h16c1.1 0 2-.9 2-2V7c0-1.1-.9-2-2-2Zm-8 13c-2.76 0-5-2.24-5-5s2.24-5 5-5 5 2.24 5 5-2.24 5-5 5Z" fill="url(#a)"/><path d="M12 16a3 3 0 1 0 0-6 3 3 0 0 0 0 6Z" fill="url(#b)"/><defs><linearGradient id="a" x1="12" y1="3.36" x2="15.453" y2="19.92" gradientUnits="userSpaceOnUse"><stop stop-color="#345EC2"/><stop offset="1" stop-color="#113896"/></linearGradient><linearGradient id="b" x1="12" y1="10.12" x2="13.267" y2="15.587" gradientUnits="userSpaceOnUse"><stop stop-color="#345EC2"/><stop offset="1" stop-color="#113896"/></linearGradient></defs></svg>