<svg width="24" height="24" fill="none" xmlns="http://www.w3.org/2000/svg"><path d="M16 11h-1V4c0-1.66-1.34-3-3-3S9 2.34 9 4v7H8c-2.76 0-5 2.24-5 5v5c0 1.1.9 2 2 2h14c1.1 0 2-.9 2-2v-5c0-2.76-2.24-5-5-5Zm3 10h-2v-3c0-.55-.45-1-1-1s-1 .45-1 1v3h-2v-3c0-.55-.45-1-1-1s-1 .45-1 1v3H9v-3c0-.55-.45-1-1-1s-1 .45-1 1v3H5v-5c0-1.65 1.35-3 3-3h8c1.65 0 3 1.35 3 3v5Z" fill="url(#a)"/><defs><linearGradient id="a" x1="12" y1="1.44" x2="17.537" y2="20.992" gradientUnits="userSpaceOnUse"><stop stop-color="#345EC2"/><stop offset="1" stop-color="#113896"/></linearGradient></defs></svg>