<svg width="25" height="24" fill="none" xmlns="http://www.w3.org/2000/svg"><path d="M13.004 3c-.55 0-1 .45-1 1v8c0 .55.45 1 1 1s1-.45 1-1V4c0-.55-.45-1-1-1Zm5.14 2.86a.99.99 0 0 0-.01 1.39c1.13 1.2 1.83 2.8 1.87 4.57.09 3.83-3.08 7.13-6.91 7.17A6.981 6.981 0 0 1 6.004 12c0-1.84.71-3.51 1.87-4.76.37-.39.37-1-.01-1.38a.993.993 0 0 0-1.43.02 8.92 8.92 0 0 0-2.43 5.86c-.14 4.88 3.83 9.1 8.71 9.25 5.1.16 9.29-3.93 9.29-9 0-2.37-.92-4.51-2.42-6.11-.38-.41-1.04-.42-1.44-.02Z" fill="url(#a)"/><defs><linearGradient id="a" x1="13.002" y1="3.36" x2="16.798" y2="19.756" gradientUnits="userSpaceOnUse"><stop stop-color="#345EC2"/><stop offset="1" stop-color="#113896"/></linearGradient></defs></svg>