<svg width="24" height="24" fill="none" xmlns="http://www.w3.org/2000/svg"><path d="M16 19c0 .55-.45 1-1 1H9c-.55 0-1-.45-1-1s.45-1 1-1h6c.55 0 1 .45 1 1ZM11 7.99V15c0 .55.45 1 1 1s1-.45 1-1V7.99h1.79c.45 0 .67-.54.35-.85l-2.79-2.78a.513.513 0 0 0-.71 0L8.86 7.14c-.32.31-.1.85.35.85H11Z" fill="url(#a)"/><defs><linearGradient id="a" x1="12" y1="4.533" x2="17.728" y2="17.066" gradientUnits="userSpaceOnUse"><stop stop-color="#345EC2"/><stop offset="1" stop-color="#113896"/></linearGradient></defs></svg>