<svg width="48" height="48" fill="none" xmlns="http://www.w3.org/2000/svg"><path d="M34.82 13.18 30 11l4.82-2.18L37 4l2.18 4.82L44 11l-4.82 2.18L37 18l-2.18-4.82Zm7.74 12.26L41 22l-1.56 3.44L36 27l3.44 1.56L41 32l1.56-3.44L46 27l-3.44-1.56Zm-10.08 3.3 3.88 2.94-5 8.66-4.48-1.88c-.4.26-.84.52-1.28.74L25 44H15l-.6-4.82c-.44-.22-.86-.46-1.28-.74l-4.48 1.88-5-8.66 3.88-2.94c-.02-.22-.02-.48-.02-.72s0-.5.02-.74l-3.88-2.94 5-8.66 4.48 1.88c.4-.26.84-.52 1.28-.74L15 12h10l.6 4.82c.44.22.86.46 1.28.74l4.48-1.88 5 8.66-3.88 2.94c.02.24.02.48.02.74s0 .48-.02.72ZM26 28c0-3.32-2.68-6-6-6s-6 2.68-6 6 2.68 6 6 6 6-2.68 6-6Z" fill="url(#a)"/><defs><linearGradient id="a" x1="24.82" y1="4.8" x2="32.837" y2="41.446" gradientUnits="userSpaceOnUse"><stop stop-color="#345EC2"/><stop offset="1" stop-color="#113896"/></linearGradient></defs></svg>