<svg width="48" height="48" fill="none" xmlns="http://www.w3.org/2000/svg"><path d="m42.82 23.16-18-18A3.975 3.975 0 0 0 22 4H8C5.8 4 4 5.8 4 8v14c0 1.1.44 2.1 1.18 2.84l18 18C23.9 43.56 24.9 44 26 44c1.1 0 2.1-.44 2.82-1.18l14-14A3.91 3.91 0 0 0 44 26c0-1.1-.46-2.12-1.18-2.84ZM11 14c-1.66 0-3-1.34-3-3s1.34-3 3-3 3 1.34 3 3-1.34 3-3 3Z" fill="url(#a)"/><defs><linearGradient id="a" x1="24" y1="4.8" x2="32.443" y2="41.244" gradientUnits="userSpaceOnUse"><stop stop-color="#345EC2"/><stop offset="1" stop-color="#113896"/></linearGradient></defs></svg>