<svg width="48" height="48" fill="none" xmlns="http://www.w3.org/2000/svg"><path d="m44 11.44-9.2-7.72-2.58 3.06 9.2 7.72L44 11.44ZM15.76 6.78 13.2 3.72 4 11.42l2.58 3.06 9.18-7.7ZM25 16h-3v12l9.5 5.7 1.5-2.46-8-4.74V16Zm-1-8C14.06 8 6 16.06 6 26s8.04 18 18 18c9.94 0 18-8.06 18-18S33.94 8 24 8Zm0 32c-7.74 0-14-6.26-14-14s6.26-14 14-14 14 6.26 14 14-6.26 14-14 14Z" fill="url(#a)"/><defs><linearGradient id="a" x1="24" y1="4.526" x2="32.556" y2="41.198" gradientUnits="userSpaceOnUse"><stop stop-color="#345EC2"/><stop offset="1" stop-color="#113896"/></linearGradient></defs></svg>