<svg width="32" height="32" fill="none" xmlns="http://www.w3.org/2000/svg"><path d="M26.68 20.507c-1.64 0-3.227-.267-4.707-.747a1.303 1.303 0 0 0-1.346.32l-2.094 2.627c-3.773-1.8-7.306-5.2-9.186-9.107l2.6-2.213c.36-.374.466-.894.32-1.36a14.869 14.869 0 0 1-.747-4.707c0-.72-.6-1.32-1.32-1.32H5.587C4.867 4 4 4.32 4 5.32 4 17.707 14.307 28 26.68 28c.947 0 1.32-.84 1.32-1.573v-4.6c0-.72-.6-1.32-1.32-1.32Z" fill="url(#a)"/><defs><linearGradient id="a" x1="16" y1="4.48" x2="21.066" y2="26.346" gradientUnits="userSpaceOnUse"><stop stop-color="#345EC2"/><stop offset="1" stop-color="#113896"/></linearGradient></defs></svg>