<svg width="155" height="60" fill="none" xmlns="http://www.w3.org/2000/svg"><path d="M8.64 3.487h32.091c3.516 0 6.272 2.704 6.272 5.925v42.353c0 3.221-2.756 5.924-6.272 5.924H8.64c-3.515 0-6.271-2.703-6.271-5.924V9.412c0-3.222 2.756-5.925 6.271-5.925Z" stroke="#fff" stroke-width="2.269"/><path d="m28.389 45.882-.618 3.53 2.469-1.177 3.086 3.53 4.32-2.353-2.469-3.53 2.469-1.176-4.32-1.177-4.32-1.176-.617 3.53Z" stroke="#fff" stroke-width="1.134"/><path d="M25.927 27.222H19.81v11.602h-5.49V8.714h11.11c3.644 0 6.458.778 8.44 2.336 1.98 1.558 2.972 3.812 2.972 6.762 0 2.013-.514 3.702-1.54 5.067-1.013 1.351-2.43 2.392-4.253 3.123l7.094 12.553v.269h-5.88l-6.335-11.602Zm-6.118-4.198h5.64c1.852 0 3.299-.441 4.34-1.324 1.042-.896 1.562-2.116 1.562-3.66 0-1.613-.484-2.86-1.453-3.743-.955-.883-2.387-1.338-4.296-1.365h-5.793v10.092ZM62.12 38.824H58.55v-19.89h3.568v19.89Zm-3.858-25.166c0-.551.174-1.017.52-1.397.36-.38.888-.57 1.582-.57.695 0 1.222.19 1.582.57.36.38.54.846.54 1.397 0 .552-.18 1.011-.54 1.379-.36.367-.887.551-1.582.551-.694 0-1.221-.183-1.581-.551-.347-.368-.52-.828-.52-1.379ZM85.512 29.1c0 3.04-.732 5.484-2.198 7.335-1.465 1.838-3.432 2.757-5.901 2.757-2.636 0-4.674-.888-6.114-2.665l-.173 2.297h-3.279V10.589h3.568v10.533c1.44-1.703 3.426-2.555 5.96-2.555 2.532 0 4.519.913 5.959 2.74 1.452 1.825 2.179 4.325 2.179 7.5v.293Zm-3.567-.386c0-2.316-.47-4.105-1.408-5.367-.938-1.263-2.288-1.894-4.05-1.894-2.353 0-4.043 1.042-5.072 3.125v8.603c1.093 2.084 2.796 3.125 5.11 3.125 1.71 0 3.041-.631 3.993-1.893.951-1.262 1.427-3.162 1.427-5.699Zm16.74 10.478c-2.829 0-5.13-.882-6.904-2.647-1.775-1.777-2.662-4.148-2.662-7.114v-.625c0-1.973.392-3.732 1.177-5.276.797-1.556 1.903-2.77 3.317-3.64a8.642 8.642 0 0 1 4.629-1.323c2.712 0 4.821.852 6.325 2.555 1.504 1.704 2.257 4.143 2.257 7.317v1.415H92.687c.052 1.96.65 3.548 1.794 4.761 1.157 1.2 2.623 1.801 4.397 1.801 1.26 0 2.327-.245 3.201-.735a7.91 7.91 0 0 0 2.295-1.948l2.18 1.617c-1.749 2.562-4.372 3.842-7.869 3.842Zm-.444-17.83c-1.44 0-2.648.502-3.625 1.507-.977.992-1.582 2.39-1.813 4.19h10.453v-.257c-.103-1.727-.592-3.063-1.466-4.007-.874-.956-2.057-1.434-3.549-1.434Zm16.605 17.463h-3.567v-19.89h3.567v19.89Zm-3.857-25.166c0-.551.174-1.017.521-1.397.36-.38.887-.57 1.581-.57.695 0 1.222.19 1.582.57.36.38.54.846.54 1.397 0 .552-.18 1.011-.54 1.379-.36.367-.887.551-1.582.551-.694 0-1.221-.183-1.581-.551-.347-.368-.521-.828-.521-1.379Zm19.671 8.327a11.182 11.182 0 0 0-1.754-.128c-2.34 0-3.928.95-4.764 2.849v14.118h-3.568v-19.89h3.472l.058 2.298c1.17-1.777 2.829-2.666 4.975-2.666.695 0 1.222.086 1.581.258v3.161Zm1.968 6.71c0-1.949.398-3.701 1.196-5.258.809-1.556 1.928-2.757 3.356-3.602 1.439-.846 3.078-1.269 4.917-1.269 2.841 0 5.136.938 6.885 2.813 1.761 1.875 2.643 4.368 2.643 7.481v.24c0 1.935-.393 3.676-1.177 5.22-.771 1.532-1.883 2.727-3.336 3.584-1.44.858-3.099 1.287-4.977 1.287-2.827 0-5.123-.937-6.884-2.812-1.749-1.875-2.623-4.357-2.623-7.445v-.24Zm3.587.404c0 2.206.534 3.977 1.6 5.313 1.08 1.336 2.521 2.003 4.32 2.003 1.814 0 3.254-.674 4.32-2.022 1.068-1.36 1.601-3.26 1.601-5.698 0-2.181-.547-3.946-1.639-5.294-1.08-1.36-2.52-2.04-4.32-2.04-1.761 0-3.182.667-4.262 2.003-1.08 1.336-1.62 3.247-1.62 5.735ZM82.555 42.817H79.17v8.948H77.79v-8.948h-3.377v-1.089h8.143v1.09Zm3.876 9.086c-1.06 0-1.923-.331-2.589-.993-.665-.666-.998-1.556-.998-2.668v-.234c0-.74.147-1.4.441-1.979a3.366 3.366 0 0 1 1.244-1.365 3.24 3.24 0 0 1 1.736-.496c1.017 0 1.808.32 2.372.958.564.64.846 1.554.846 2.744v.53h-5.3c.018.736.243 1.331.672 1.786.434.45.983.676 1.649.676.472 0 .872-.092 1.2-.276.328-.184.615-.427.86-.73l.818.606c-.656.96-1.64 1.44-2.95 1.44Zm-.166-6.687c-.54 0-.993.188-1.36.565-.366.373-.593.896-.68 1.572h3.92v-.096c-.038-.648-.221-1.15-.55-1.503-.327-.359-.77-.538-1.33-.538Zm7.912 5.646c.477 0 .894-.138 1.251-.414.357-.276.555-.62.593-1.034h1.266c-.024.427-.179.834-.463 1.22a3.009 3.009 0 0 1-1.143.924c-.472.23-.974.345-1.504.345-1.066 0-1.914-.338-2.546-1.014-.627-.68-.94-1.608-.94-2.785v-.213c0-.727.14-1.372.42-1.938.28-.565.68-1.004 1.2-1.316.526-.313 1.145-.469 1.859-.469.877 0 1.605.25 2.184.752.583.5.894 1.15.933 1.95H96.02a1.706 1.706 0 0 0-.578-1.185c-.343-.313-.767-.469-1.273-.469-.68 0-1.208.234-1.584.703-.371.464-.557 1.138-.557 2.02v.241c0 .86.186 1.521.557 1.985.371.465.901.697 1.591.697Zm5.88-6.556.043.938c.598-.717 1.379-1.076 2.343-1.076 1.654 0 2.488.89 2.503 2.668v4.929h-1.338v-4.936c-.005-.538-.135-.935-.391-1.193-.251-.257-.644-.386-1.179-.386-.434 0-.814.11-1.142.331-.328.22-.584.51-.767.869v5.315h-1.338v-7.459h1.266Zm6.552 3.66c0-.73.149-1.387.448-1.971a3.306 3.306 0 0 1 1.259-1.351c.54-.317 1.155-.476 1.844-.476 1.066 0 1.926.352 2.582 1.055.66.703.991 1.638.991 2.806v.09c0 .725-.147 1.378-.441 1.957a3.202 3.202 0 0 1-1.252 1.344c-.54.322-1.162.483-1.866.483-1.06 0-1.921-.352-2.581-1.055-.656-.703-.984-1.634-.984-2.792v-.09Zm1.345.152c0 .827.2 1.491.6 1.992.405.501.945.752 1.62.752.68 0 1.22-.253 1.62-.759.401-.51.601-1.222.601-2.136 0-.819-.205-1.48-.615-1.986-.405-.51-.945-.765-1.62-.765-.661 0-1.193.25-1.598.751s-.608 1.218-.608 2.151Zm8.91 3.647h-1.338V41.176h1.338v10.589Zm1.794-3.798c0-.731.149-1.388.448-1.972a3.3 3.3 0 0 1 1.259-1.351c.54-.317 1.154-.476 1.844-.476 1.065 0 1.926.352 2.582 1.055.661.703.99 1.638.99 2.806v.09c0 .725-.147 1.378-.44 1.957a3.202 3.202 0 0 1-1.252 1.344c-.539.322-1.162.483-1.866.483-1.06 0-1.921-.352-2.582-1.055-.655-.703-.983-1.634-.983-2.792v-.09Zm1.345.151c0 .827.2 1.491.6 1.992.405.501.945.752 1.62.752.68 0 1.22-.253 1.62-.759.4-.51.6-1.222.6-2.136 0-.819-.205-1.48-.614-1.986-.405-.51-.945-.765-1.62-.765-.661 0-1.194.25-1.599.751-.404.501-.607 1.218-.607 2.151Zm7.138-.145c0-1.162.282-2.086.846-2.77.564-.69 1.312-1.035 2.243-1.035.954 0 1.699.322 2.234.965l.065-.827h1.222v7.28c0 .965-.301 1.725-.904 2.281-.598.556-1.403.834-2.415.834a4.192 4.192 0 0 1-1.656-.344c-.54-.23-.952-.545-1.237-.945l.695-.765c.572.676 1.275 1.013 2.104 1.013.651 0 1.157-.174 1.518-.523.367-.35.55-.842.55-1.476v-.64c-.535.587-1.266.882-2.191.882-.916 0-1.659-.352-2.228-1.055-.564-.703-.846-1.661-.846-2.875Zm1.346.145c0 .841.18 1.503.542 1.985.361.478.867.717 1.519.717.843 0 1.463-.365 1.858-1.096V46.32c-.41-.712-1.025-1.069-1.844-1.069-.651 0-1.159.242-1.526.724-.367.483-.549 1.197-.549 2.144Zm8.743 3.647h-1.338v-7.459h1.338v7.459Zm-1.446-9.437c0-.207.064-.382.195-.524.134-.143.333-.214.592-.214.261 0 .459.071.594.214a.732.732 0 0 1 .202.524c0 .206-.067.379-.202.517s-.333.206-.594.206c-.259 0-.458-.068-.592-.206a.72.72 0 0 1-.195-.517Zm8.425 9.437c-.078-.147-.139-.41-.188-.786-.622.616-1.365.924-2.227.924-.772 0-1.406-.207-1.902-.62a1.99 1.99 0 0 1-.739-1.586c0-.777.309-1.379.926-1.806.622-.432 1.495-.648 2.618-.648h1.302v-.586c0-.446-.139-.8-.419-1.062-.279-.266-.692-.4-1.237-.4-.477 0-.878.115-1.2.345-.323.23-.485.508-.485.834h-1.345c0-.372.137-.73.412-1.075.28-.35.655-.625 1.128-.828a3.988 3.988 0 0 1 1.57-.303c.901 0 1.607.216 2.118.648.512.427.776 1.018.796 1.772v3.433c0 .684.092 1.229.275 1.633v.11h-1.403Zm-2.22-.972c.419 0 .817-.104 1.193-.31.377-.207.648-.476.817-.807v-1.53h-1.049c-1.639 0-2.459.457-2.459 1.371 0 .4.141.713.42.938.28.225.639.338 1.078.338Z" fill="#fff"/></svg>